<svg xmlns="http://www.w3.org/2000/svg" width="128" height="128"><path d="M67.015 3.485c-1.858 1.917-3.184 3.655-2.947 3.862.238.208 2.361.624 4.718.925 3.715.474 4.491.235 5.821-1.795 1.188-1.813 1.285-2.811.429-4.41-1.606-3-4.18-2.545-8.021 1.418M30.182 35.519c-6.129 2.663-9.423 5.765-11.926 11.234-10.187 22.25 18.028 41.878 35.087 24.408 2.052-2.102 4.524-6.036 5.492-8.741 1.635-4.57 1.999-4.92 5.126-4.92 3.127 0 3.48.338 4.957 4.756C72.232 72.161 79.994 78 89.848 78c12.917 0 22.108-9.146 22.108-22 0-6.792-2.466-12.484-7.213-16.653-10.19-8.947-26.425-6.473-33.573 5.115-2.533 4.105-2.914 4.33-7.424 4.376-4.182.042-4.923-.279-6.157-2.666-5.058-9.78-17.912-14.777-27.407-10.653m.939 8.134c-9.767 4.976-9.441 20.12.536 24.855C40.911 72.899 52 66.081 52 56c0-10.215-11.599-17.074-20.879-12.347m52.12.342c-6.817 4.156-9.124 12.405-5.246 18.764 5.869 9.627 19.702 9.395 24.472-.41 6.054-12.443-7.578-25.457-19.226-18.354M37.04 53.452c-1.555 1.873-1.012 4.537 1.21 5.936 3.465 2.182 7.367-2.735 4.71-5.936a3.837 3.837 0 00-5.92 0m48 0c-2.657 3.201 1.245 8.118 4.71 5.936 2.222-1.399 2.765-4.063 1.21-5.936a3.837 3.837 0 00-5.92 0M82 85.531c-2.475.699-7.537 1.598-11.25 1.999l-6.75.728v8l7.036-.693c8.025-.791 17.726-3.123 19.657-4.725 2.644-2.195.753-6.996-2.643-6.709-.852.071-3.575.702-6.05 1.4M64 106c0 4.028.075 4.119 3.149 3.813 6.367-.633 6.367-6.993 0-7.626C64.075 101.881 64 101.972 64 106" fill="undefined" fill-rule="evenodd"/></svg>